# xmcd
#
# Track frame offsets: 
#        150
#        11173
#        24042
#        36160
#        55367
#        65950
#        78368
#        90898
#        104628
#        115020
#        127597
#        136984
#        150823
#        159784
#        172694
#        184341
#
# Disc length: 2604 seconds
#
# Revision: 1
# Processed by: cddbd v1.5.2PL0 Copyright (c) Steve Scherf et al.
# Submitted via: ExactAudioCopy v0.99pb5
#
DISCID=b40a2a10
DTITLE=Various Artist - Uncut - Maximum R'n'B
DYEAR=1960
DGENRE=Blues
TTITLE0=Jessie Hill - Ooh Poo Pah Doo
TTITLE1=Bo Diddley - Pretty Thing
TTITLE2=Otis Blackwell - Daddy Rolling Stone
TTITLE3=Phil Upchurch Combo - You Can't Sit Down
TTITLE4=Johnny Kidd and The Pirates - Shakin' All Over
TTITLE5=James Brown - Please Please Please
TTITLE6=Howlin' Wolf - Spoonful
TTITLE7=Mose Allison - One Room Country Shack
TTITLE8=The Regents - Barbara Ann
TTITLE9=Jimmy Reed - Big Boss Man
TTITLE10=The Top Notes - Shake It Up, Baby
TTITLE11=Sonny Boy Willliamson II - Eyesight To The Blind
TTITLE12=Eddie Cochran - Summertime Blues
TTITLE13=Muddy Waters - I Just Want To Make Love To You
TTITLE14=Chuck Willis - CC Rider
TTITLE15=Link Wray - Rumble
EXTD=
EXTT0=
EXTT1=
EXTT2=
EXTT3=
EXTT4=
EXTT5=
EXTT6=
EXTT7=
EXTT8=
EXTT9=
EXTT10=
EXTT11=
EXTT12=
EXTT13=
EXTT14=
EXTT15=
PLAYORDER=
